<?xml version="1.0" standalone="no"?>
<!DOCTYPE svg PUBLIC "-//W3C//DTD SVG 20010904//EN"
 "http://www.w3.org/TR/2001/REC-SVG-20010904/DTD/svg10.dtd">
<svg version="1.0" xmlns="http://www.w3.org/2000/svg"
 width="300.000000pt" height="300.000000pt" viewBox="0 0 300.000000 300.000000"
 preserveAspectRatio="xMidYMid meet">
<metadata>
Created by potrace 1.14, written by Peter Selinger 2001-2017
</metadata>
<g transform="translate(0.000000,300.000000) scale(0.100000,-0.100000)"
fill="#000000" stroke="none">
<path d="M1605 1101 c3 -5 1 -12 -5 -16 -5 -3 -10 -2 -10 3 0 5 -29 -6 -64
-24 -35 -18 -67 -30 -69 -27 -6 5 -79 -46 -85 -59 -2 -4 -9 -5 -17 -2 -12 5
-65 -21 -223 -109 -37 -20 -82 -44 -99 -52 -33 -15 -47 -30 -18 -19 33 13 12
-4 -32 -26 -27 -13 -55 -29 -63 -36 -8 -7 -32 -16 -53 -19 -38 -7 -38 -7 -25
14 7 11 16 21 21 21 4 0 6 4 3 9 -4 5 2 7 12 4 12 -3 19 1 19 11 0 8 -4 13 -9
10 -4 -3 -8 3 -8 12 0 14 -3 15 -12 6 -7 -7 -31 -12 -55 -12 -42 0 -49 -3
-152 -72 -14 -10 -35 -22 -46 -27 -12 -5 -27 -16 -34 -25 -7 -9 -19 -16 -27
-16 -18 0 -140 -67 -184 -101 -43 -33 -122 -75 -215 -113 -38 -16 -89 -40
-112 -54 l-43 -24 0 -179 0 -180 956 3 c897 3 956 4 968 21 7 9 21 17 30 17 9
0 33 7 54 17 20 9 42 15 49 14 6 -1 14 3 18 9 3 5 20 10 36 10 18 0 28 4 24
10 -3 6 2 11 12 12 10 0 24 2 31 2 7 1 16 6 20 12 4 6 25 17 47 24 22 7 49 16
60 21 11 4 56 19 100 32 106 34 240 107 291 160 l41 42 -24 32 -25 33 28 11
c67 26 93 31 164 34 41 1 85 3 98 4 22 1 23 5 20 55 -1 30 -6 52 -10 50 -4 -2
-9 0 -12 5 -3 5 1 11 9 15 8 3 15 11 15 18 0 7 -11 2 -23 -12 -12 -14 -30 -24
-40 -22 -10 2 -16 -2 -15 -9 2 -7 -6 -14 -17 -15 -11 -2 -38 -10 -60 -18 -54
-20 -69 -20 -90 4 -13 14 -21 17 -31 9 -7 -6 -14 -6 -18 0 -7 10 -46 3 -46 -9
0 -4 -13 -10 -30 -13 -16 -4 -38 -14 -49 -24 -38 -35 -49 -42 -55 -36 -3 4 -6
1 -6 -5 0 -7 -7 -12 -15 -12 -9 0 -12 -6 -9 -15 4 -9 0 -15 -10 -15 -10 0 -13
6 -10 15 8 19 -7 19 -32 0 -19 -14 -19 -14 1 -15 14 -1 11 -5 -14 -15 -38 -17
-53 -19 -31 -5 13 8 12 10 -2 10 -10 0 -18 -7 -18 -15 0 -18 -16 -20 -23 -2
-3 7 -6 4 -6 -7 -1 -15 -4 -16 -16 -6 -12 10 -15 10 -15 0 0 -8 -8 -10 -21 -7
-30 8 -68 -19 -62 -43 3 -12 0 -20 -6 -20 -7 0 -9 6 -6 13 4 6 0 4 -8 -5 -8
-10 -19 -18 -24 -18 -6 0 -16 -7 -23 -15 -14 -17 -45 -21 -35 -5 4 6 10 8 15
5 12 -8 33 23 24 37 -6 10 -5 11 8 1 8 -7 18 -10 21 -6 12 11 8 23 -8 23 -15
0 -17 20 -3 31 5 3 1 14 -7 25 -13 16 -16 17 -26 4 -8 -11 -12 -12 -16 -2 -2
6 -9 10 -14 6 -15 -9 -10 -22 12 -29 11 -4 18 -9 16 -12 -3 -2 -14 0 -25 6
-15 8 -23 7 -32 -4 -7 -8 -17 -15 -23 -15 -6 0 -1 7 11 16 12 8 22 19 22 24 0
10 -27 7 -37 -5 -4 -4 -2 -5 6 0 9 5 12 4 7 -3 -10 -17 -36 -3 -28 16 5 15 4
16 -14 2 -19 -14 -19 -14 -1 7 23 27 13 51 -11 27 -11 -11 -17 -13 -20 -5 -2
6 -8 9 -12 6 -5 -3 -12 -1 -15 5 -4 6 -3 10 2 9 20 -3 33 2 31 13 -2 8 5 12
17 10 16 -2 17 -1 5 7 -12 9 -12 11 3 17 9 3 23 4 30 1 8 -3 14 1 14 8 0 7 -8
10 -19 7 -10 -2 -18 1 -18 7 0 6 -5 11 -11 11 -6 0 -9 -7 -6 -14 4 -10 1 -13
-9 -9 -10 4 -12 0 -8 -10 4 -12 0 -15 -15 -14 -26 2 -26 8 -2 34 19 21 19 21
-10 19 -26 -1 -28 -2 -12 -13 9 -7 13 -13 7 -13 -5 0 -20 -3 -33 -7 -17 -4
-22 -3 -17 6 4 6 12 8 18 5 7 -4 8 -2 4 5 -6 9 -11 9 -21 1 -8 -7 -19 -9 -25
-5 -7 4 -10 0 -8 -11 2 -10 -1 -19 -7 -19 -16 -2 -85 -33 -85 -40 0 -3 16 1
35 10 l36 14 -29 -29 c-25 -25 -34 -28 -58 -20 -16 4 -21 9 -11 9 9 1 17 5 17
9 0 12 -73 12 -87 0 -9 -7 -13 -7 -13 0 0 6 -10 12 -22 14 l-23 3 25 14 c17
10 25 11 28 2 2 -6 8 -11 14 -11 7 0 6 5 -1 14 -8 10 -9 16 -1 21 15 9 -8 48
-25 41 -11 -4 -12 0 -6 17 5 12 19 25 32 28 26 8 25 8 -8 15 -12 2 -25 -1 -28
-6 -3 -6 -15 -10 -25 -10 -23 0 -90 -38 -90 -52 0 -5 -3 -7 -7 -5 -16 10 -78
-28 -79 -48 -1 -11 -2 -30 -3 -42 -1 -13 -5 -23 -10 -23 -5 0 -7 9 -4 19 4 15
-1 20 -19 23 -12 2 -24 9 -24 16 -1 6 -3 15 -4 20 -4 12 -7 26 -8 40 -1 7 -6
11 -11 7 -5 -3 -16 4 -25 16 -15 22 -41 17 -32 -6 2 -7 -1 -18 -7 -25 -10 -10
-7 -12 9 -8 27 7 39 -1 48 -27 5 -19 3 -21 -29 -17 -19 2 -35 8 -35 13 0 5 -6
9 -14 9 -8 0 -18 5 -22 12 -4 7 -3 8 4 4 8 -4 12 0 12 11 0 11 6 25 13 32 10
10 9 11 -3 6 -8 -3 -25 -20 -37 -38 -17 -23 -23 -27 -23 -14 0 10 7 20 15 23
8 4 15 13 15 20 0 8 8 18 18 21 9 4 20 11 24 17 5 8 8 7 8 -1 0 -7 7 -10 15
-7 8 4 12 10 9 16 -11 17 47 68 77 68 15 0 34 7 43 15 17 17 53 19 90 5 14 -5
26 -6 26 -2 0 5 20 24 45 42 45 34 45 34 23 47 -20 11 -21 12 -4 13 14 0 17 6
14 25 -4 17 2 33 18 51 31 33 31 62 -1 74 -14 5 -25 14 -25 20 0 5 -7 10 -16
10 -12 0 -15 6 -10 26 5 20 3 24 -10 22 -9 -2 -19 3 -22 11 -3 9 0 11 8 6 9
-6 9 -3 1 14 -7 11 -14 21 -17 21 -3 0 -3 -4 1 -9z m-785 -403 c0 -4 -4 -8 -9
-8 -6 0 -12 4 -15 8 -3 5 1 9 9 9 8 0 15 -4 15 -9z m850 -97 c-8 -6 -18 -7
-22 -5 -4 3 -8 1 -8 -5 0 -6 -7 -8 -16 -4 -21 8 2 23 36 23 19 0 22 -2 10 -9z
m1285 -1 c3 -5 -1 -10 -9 -10 -9 0 -16 5 -16 10 0 6 4 10 9 10 6 0 13 -4 16
-10z m-1705 -40 c0 -5 -6 -10 -12 -10 -10 0 -9 -3 1 -9 9 -6 4 -10 -18 -13
-37 -5 -38 -2 -8 23 25 21 37 24 37 9z m700 -40 c-27 -24 -30 -24 -30 -6 0 13
15 21 44 25 5 0 -1 -8 -14 -19z m-59 -23 c-10 -9 -11 -8 -5 6 3 10 9 15 12 12
3 -3 0 -11 -7 -18z m-341 -22 c19 12 61 15 54 4 -3 -5 0 -9 6 -9 6 0 8 -4 5
-10 -3 -5 -11 -10 -16 -10 -6 0 -8 4 -4 9 3 5 1 12 -5 16 -5 3 -10 1 -10 -5 0
-6 -5 -8 -12 -4 -9 5 -9 2 1 -9 11 -15 11 -17 -2 -17 -8 0 -18 6 -20 13 -4 7
-6 6 -6 -4 -1 -23 -33 -49 -38 -31 -3 6 -8 10 -13 7 -4 -3 -11 2 -14 11 -6 15
-4 15 19 0 24 -16 26 -16 32 1 4 9 2 18 -5 21 -6 2 -8 10 -5 18 4 12 8 13 13
4 5 -7 13 -9 20 -5z m90 -2 c0 -14 2 -14 21 3 22 19 22 19 10 -3 -13 -26 -22
-28 -39 -11 -15 15 -16 28 -2 28 6 0 10 -7 10 -17z m330 -8 c0 -8 -4 -15 -10
-15 -5 0 -7 7 -4 15 4 8 8 15 10 15 2 0 4 -7 4 -15z m25 -25 c3 -5 1 -10 -4
-10 -6 0 -11 5 -11 10 0 6 2 10 4 10 3 0 8 -4 11 -10z m722 -27 c3 -7 -3 -9
-17 -6 -29 8 -37 25 -9 21 12 -1 24 -8 26 -15z m-432 -13 c-3 -5 -13 -10 -21
-10 -8 0 -12 5 -9 10 3 6 13 10 21 10 8 0 12 -4 9 -10z m-825 -15 c-7 -8 -16
-12 -21 -9 -5 3 -9 -2 -9 -11 0 -9 -4 -13 -10 -10 -17 11 -11 23 18 33 37 14
36 14 22 -3z m885 -15 c3 -6 -1 -7 -9 -4 -18 7 -21 14 -7 14 6 0 13 -4 16 -10z
m-185 -10 c0 -5 -5 -10 -11 -10 -5 0 -7 5 -4 10 3 6 8 10 11 10 2 0 4 -4 4
-10z m130 -14 c0 -2 -7 -7 -16 -10 -8 -3 -12 -2 -9 4 6 10 25 14 25 6z m-190
-10 c0 -3 -4 -8 -10 -11 -5 -3 -10 -1 -10 4 0 6 5 11 10 11 6 0 10 -2 10 -4z
m130 -19 c0 -2 -10 -12 -22 -23 l-23 -19 19 23 c18 21 26 27 26 19z m35 -17
c3 -6 -1 -7 -9 -4 -18 7 -21 14 -7 14 6 0 13 -4 16 -10z m-786 -3 c-2 -1 -12
-9 -21 -16 -15 -12 -18 -11 -18 3 0 10 8 16 22 16 12 0 19 -1 17 -3z m581 -15
c-40 -21 -105 -39 -80 -22 8 5 23 10 33 10 9 0 17 4 17 9 0 9 21 18 50 20 8 0
-1 -7 -20 -17z m-652 -14 c7 -7 12 -16 12 -22 0 -5 -6 -2 -13 9 -13 17 -14 17
-29 -3 -8 -12 -18 -19 -21 -15 -7 6 21 43 33 43 3 0 11 -5 18 -12z"/>
<path d="M1691 854 c0 -11 3 -14 6 -6 3 7 2 16 -1 19 -3 4 -6 -2 -5 -13z"/>
<path d="M2093 733 c-3 -10 -7 -21 -9 -24 -2 -3 2 -6 9 -6 7 0 12 11 12 24 0
28 -3 29 -12 6z"/>
<path d="M2044 716 c-11 -8 -15 -18 -10 -23 5 -4 11 -2 13 5 3 6 8 10 13 7 4
-3 10 2 14 10 7 19 -4 19 -30 1z"/>
<path d="M1465 550 c-3 -5 -2 -10 4 -10 5 0 13 5 16 10 3 6 2 10 -4 10 -5 0
-13 -4 -16 -10z"/>
<path d="M1345 540 c-3 -5 1 -10 9 -10 9 0 16 5 16 10 0 6 -4 10 -9 10 -6 0
-13 -4 -16 -10z"/>
<path d="M1800 540 c0 -5 10 -10 23 -10 18 0 19 2 7 10 -19 13 -30 13 -30 0z"/>
<path d="M2095 536 c-17 -6 -30 -17 -29 -23 1 -7 2 -19 3 -27 1 -9 10 -12 26
-8 14 2 23 7 21 10 -3 3 0 12 7 20 9 13 9 14 0 8 -7 -4 -13 -3 -13 3 0 5 6 11
13 14 6 2 10 6 7 9 -3 2 -19 -1 -35 -6z m2 -32 c-3 -3 -12 -4 -19 -1 -8 3 -5
6 6 6 11 1 17 -2 13 -5z"/>
<path d="M1769 519 c-8 -17 -8 -20 2 -17 7 2 13 12 15 21 3 23 -3 21 -17 -4z"/>
<path d="M2148 533 c7 -3 16 -2 19 1 4 3 -2 6 -13 5 -11 0 -14 -3 -6 -6z"/>
<path d="M2140 505 c0 -8 2 -15 4 -15 2 0 6 7 10 15 3 8 1 15 -4 15 -6 0 -10
-7 -10 -15z"/>
<path d="M2893 298 c-17 -6 -33 -18 -36 -28 -3 -11 -19 -19 -46 -24 -23 -3
-88 -22 -144 -42 -56 -19 -130 -41 -164 -48 -34 -7 -69 -18 -77 -25 -8 -7 -20
-10 -26 -6 -5 3 -10 2 -10 -4 0 -10 -75 -31 -120 -34 -14 -1 -28 -6 -32 -11
-3 -5 -20 -9 -37 -9 -16 0 -28 -4 -25 -8 6 -11 -42 -23 -61 -15 -8 3 -15 1
-15 -3 0 -5 -13 -14 -30 -20 -16 -5 -30 -12 -30 -15 0 -4 216 -6 480 -6 l480
0 0 149 0 150 -32 -10 c-48 -13 -59 -10 -18 6 l35 13 -30 0 c-16 0 -44 -5 -62
-10z"/>
</g>
</svg>
